<?xml version="1.0" encoding="iso-8859-1"?>
<!-- Generator: Adobe Illustrator 19.0.0, SVG Export Plug-In . SVG Version: 6.00 Build 0)  -->
<svg xmlns="http://www.w3.org/2000/svg" xmlns:xlink="http://www.w3.org/1999/xlink" version="1.1" id="Capa_1" x="0px" y="0px" viewBox="0 0 512 512" style="enable-background:new 0 0 512 512;" xml:space="preserve" width="512px" height="512px">
<g>
	<g>
		<path d="M90,176.796v158.408l31,7.5v26.719c0,20.684,14.019,38.643,34.087,43.652l120,30C303.069,450.154,331,429.031,331,399.423    v-4.219l91,22.5V94.296L90,176.796z M301.001,399.423L301.001,399.423c-0.001,9.531-8.803,16.864-18.648,14.561l-119.985-30    c-6.694-1.685-11.367-7.661-11.367-14.561v-19.219l150,37.5V399.423z" fill="#FFFFFF"/>
	</g>
</g>
<g>
	<g>
		<path d="M482,31c-16.569,0-30,13.431-30,30v390c0,16.567,13.431,30,30,30c16.569,0,30-13.433,30-30V61    C512,44.431,498.569,31,482,31z" fill="#FFFFFF"/>
	</g>
</g>
<g>
	<g>
		<path d="M30,151c-16.569,0-30,13.431-30,30v150c0,16.567,13.431,30,30,30c16.569,0,30-13.433,30-30V181    C60,164.431,46.569,151,30,151z" fill="#FFFFFF"/>
	</g>
</g>
<g>
</g>
<g>
</g>
<g>
</g>
<g>
</g>
<g>
</g>
<g>
</g>
<g>
</g>
<g>
</g>
<g>
</g>
<g>
</g>
<g>
</g>
<g>
</g>
<g>
</g>
<g>
</g>
<g>
</g>
</svg>
